<?xml version="1.0" encoding="UTF-8"?>
<!DOCTYPE svg PUBLIC "-//W3C//DTD SVG 1.1//EN" "http://www.w3.org/Graphics/SVG/1.1/DTD/svg11.dtd">
<!-- Creator: CorelDRAW 2019 (64-Bit) -->
<svg xmlns="http://www.w3.org/2000/svg" xml:space="preserve" width="1.86931in" height="1.0515in" version="1.1" style="shape-rendering:geometricPrecision; text-rendering:geometricPrecision; image-rendering:optimizeQuality; fill-rule:evenodd; clip-rule:evenodd"
viewBox="0 0 194.77 109.56"
 xmlns:xlink="http://www.w3.org/1999/xlink"
 xmlns:xodm="http://www.corel.com/coreldraw/odm/2003">
 <defs>
  <style type="text/css">
   <![CDATA[
    .fil0 {fill:none}
    .fil1 {fill:#171717;fill-rule:nonzero}
    .fil2 {fill:#FDB933;fill-rule:nonzero}
   ]]>
  </style>
 </defs>
 <g id="Layer_x0020_1">
  <metadata id="CorelCorpID_0Corel-Layer"/>
  <rect class="fil0" width="194.77" height="109.56"/>
  <g id="_1742326448816">
   <path class="fil1" d="M107.68 90.44l0 -9.84c0,-1.56 -0.19,-2.63 -0.58,-3.22 -0.39,-0.6 -1.07,-0.9 -2.03,-0.9 -1.19,0 -2.03,0.41 -2.5,1.24 -0.47,0.83 -0.7,2.52 -0.7,5.08l0 7.64 -6.18 0 0 -9.84c0,-1.58 -0.18,-2.67 -0.58,-3.24 -0.38,-0.58 -1.04,-0.88 -2,-0.88 -1.19,0 -2.04,0.41 -2.51,1.22 -0.48,0.82 -0.72,2.52 -0.72,5.1l0 7.64 -6.21 0 0 -18.02 6.29 0 0 2.62c0.75,-1.27 1.63,-1.7 2.61,-2.3 0.98,-0.6 2.15,-0.9 3.49,-0.9 1.47,0 2.68,0.28 3.62,0.85 0.93,0.56 1.61,1.42 2.02,2.55 0.71,-1.14 1.56,-2 2.58,-2.56 1.02,-0.56 2.22,-0.84 3.59,-0.84 1.09,0 2.05,0.19 2.86,0.54 0.82,0.37 1.51,0.91 2.06,1.64 0.44,0.57 0.75,1.24 0.94,2 0.19,0.76 0.27,1.99 0.27,3.7l0 0.4 0 10.32 -6.32 0z"/>
   <path class="fil1" d="M76.33 72.43l0 2.7c-0.7,-1.2 -1.55,-1.84 -2.53,-2.41 -0.99,-0.58 -2.17,-0.88 -3.54,-0.88 -2.56,0 -4.59,0.86 -6.1,2.6 -1.51,1.74 -2.28,4.07 -2.28,7.01 0,2.95 0.72,5.31 2.17,7.06 1.45,1.75 3.38,2.64 5.8,2.64 1.41,0 2.64,-0.29 3.69,-0.87 1.05,-0.58 1.99,-1.24 2.82,-2.49l0 2.66 5.89 0 0 -18.02 -5.93 0zm-1.1 12.3c-0.76,0.81 -1.52,1.21 -2.83,1.21 -1.29,0 -2.32,-0.4 -3.07,-1.21 -0.75,-0.81 -1.13,-1.92 -1.13,-3.32 0,-1.41 0.37,-2.53 1.12,-3.34 0.75,-0.81 1.77,-1.22 3.08,-1.22 1.31,0 2.07,0.41 2.83,1.23 0.75,0.82 1.12,1.93 1.12,3.33 0,1.4 -0.37,2.51 -1.12,3.32z"/>
   <path class="fil1" d="M60.26 77.77c-0.5,-1.16 -1.24,-2.22 -2.23,-3.16 -0.95,-0.92 -2.04,-1.61 -3.25,-2.07 -1.21,-0.46 -2.51,-0.69 -3.92,-0.69 -1.41,0 -2.71,0.23 -3.92,0.69 -1.22,0.46 -2.3,1.16 -3.25,2.07 -0.97,0.93 -1.7,1.98 -2.2,3.14 -0.5,1.17 -0.75,2.41 -0.75,3.73 0,1.31 0.25,2.55 0.75,3.73 0.51,1.17 1.23,2.21 2.19,3.11 0.96,0.93 2.04,1.63 3.26,2.11 1.22,0.48 2.51,0.71 3.9,0.71 1.37,0 2.65,-0.24 3.87,-0.71 1.22,-0.48 2.31,-1.18 3.29,-2.11 0.98,-0.93 1.71,-1.98 2.22,-3.14 0.51,-1.16 0.77,-2.4 0.77,-3.7 0,-1.3 -0.26,-2.54 -0.76,-3.71zm-6.62 6.89c-0.68,0.76 -1.6,1.15 -2.77,1.15 -1.18,0 -2.11,-0.38 -2.78,-1.15 -0.67,-0.77 -1,-1.83 -1,-3.18 0,-1.34 0.33,-2.4 1.01,-3.17 0.67,-0.77 1.6,-1.16 2.77,-1.16 1.16,0 2.08,0.39 2.76,1.16 0.68,0.77 1.02,1.84 1.02,3.17 0,1.35 -0.34,2.41 -1.01,3.18z"/>
   <path class="fil1" d="M27.48 90.44l0 -18.02 6.03 0 0 3.73c0.63,-1.55 1.47,-2.19 2.55,-2.97 1.08,-0.78 2.38,-1.16 3.92,-1.16 0.25,0 0.5,0.01 0.76,0.03 0.26,0.01 0.52,0.05 0.78,0.08l-0.62 5.77c-0.38,-0.13 -0.76,-0.22 -1.13,-0.28 -0.37,-0.06 -0.73,-0.09 -1.08,-0.09 -1.55,0 -2.75,0.47 -3.59,1.42 -0.84,0.94 -1.26,2.28 -1.26,4.02l0 7.46 -6.36 0z"/>
   <path class="fil2" d="M176.35 82.39c0,-3.28 -0.87,-5.85 -2.61,-7.73 -1.73,-1.88 -4.11,-2.82 -7.11,-2.82 -2.92,0 -5.33,0.93 -7.25,2.79 -1.9,1.86 -2.86,4.19 -2.86,7 0,2.86 0.96,5.15 2.87,6.9 1.9,1.74 4.45,2.62 7.61,2.62 2.12,0 3.91,-0.38 5.37,-1.13 1.46,-0.75 2.47,-1.81 3.05,-3.2l-4.81 -1.92c-0.35,0.71 -0.85,1.25 -1.52,1.61 -0.67,0.36 -1.49,0.55 -2.46,0.55 -1.29,0 -2.29,-0.38 -3,-1.14 -0.71,-0.76 -1.07,-1.83 -1.08,-3.22l13.79 0 0 -0.3zm-13.65 -3.28c0.21,-1.13 0.62,-1.98 1.23,-2.55 0.62,-0.57 1.45,-0.85 2.5,-0.85 0.97,0 1.78,0.31 2.45,0.93 0.66,0.62 1.06,1.44 1.17,2.46l-7.35 0z"/>
   <path class="fil2" d="M155.89 82.39c0,-3.28 -0.87,-5.85 -2.6,-7.73 -1.73,-1.88 -4.11,-2.82 -7.11,-2.82 -2.92,0 -5.33,0.93 -7.24,2.79 -1.91,1.86 -2.86,4.19 -2.86,7 0,2.86 0.96,5.15 2.86,6.9 1.91,1.74 4.45,2.62 7.61,2.62 2.12,0 3.91,-0.38 5.37,-1.13 1.46,-0.75 2.48,-1.81 3.05,-3.2l-4.8 -1.92c-0.35,0.71 -0.86,1.25 -1.52,1.61 -0.67,0.36 -1.48,0.55 -2.46,0.55 -1.29,0 -2.29,-0.38 -3,-1.14 -0.7,-0.76 -1.06,-1.83 -1.08,-3.22l13.79 0 0 -0.3zm-13.64 -3.28c0.2,-1.13 0.62,-1.98 1.23,-2.55 0.62,-0.57 1.45,-0.85 2.49,-0.85 0.97,0 1.79,0.31 2.46,0.93 0.66,0.62 1.06,1.44 1.17,2.46l-7.35 0z"/>
   <path class="fil2" d="M133.09 74.5c-1.51,-1.77 -3.47,-2.66 -5.88,-2.66 -1.55,0 -2.8,0.28 -3.76,0.83 -0.96,0.55 -1.64,1.21 -2.38,2.49 0.06,-0.36 0,-12.38 0,-12.38l-6.1 0 0 27.67 5.88 0 0 -2.41c0.82,1.22 1.74,1.6 2.76,2.2 1.01,0.6 2.14,0.9 3.39,0.9 2.54,0 4.56,-0.88 6.08,-2.63 1.52,-1.75 2.27,-4.1 2.27,-7.07 0,-2.87 -0.75,-5.19 -2.25,-6.95zm-5.23 10.28c-0.74,0.81 -1.76,1.21 -3.07,1.21 -1.29,0 -2.05,-0.41 -2.78,-1.22 -0.74,-0.81 -1.11,-1.92 -1.11,-3.32 0,-1.4 0.37,-2.51 1.11,-3.32 0.73,-0.82 1.49,-1.21 2.78,-1.21 1.29,0 2.32,0.4 3.07,1.21 0.74,0.81 1.12,1.92 1.12,3.32 0,1.41 -0.37,2.52 -1.12,3.32z"/>
   <path class="fil2" d="M67.38 47.34l0 0c2.15,0.61 4.71,3.99 4.89,7.35l9.6 5.29 -10.89 -1.14c-1.54,2.06 -4.25,3.57 -7.01,4.26 2.42,-3.95 4.22,-8.67 3.41,-15.77z"/>
   <path class="fil2" d="M56.83 43.8l0 0c1.8,-0.11 4.61,0.26 5.69,1.07 1.04,5.69 0.26,13.1 -4.81,18.49 -2.23,-0.03 -4.43,-0.34 -5.97,-1.54 4.58,-4.55 5.65,-10.71 5.09,-18.01z"/>
   <path class="fil2" d="M47.33 46.27l0 0c1.6,-1.36 4.24,-2.02 5.19,-2 0.76,6.49 -0.79,11.46 -4.5,15.34 -1.29,-0.74 -2.72,-2.26 -3.84,-4.36 2.18,-1.86 3.47,-6.54 3.15,-8.98z"/>
   <path class="fil2" d="M33.76 39.08l0 0c-1.23,-2.95 -6.08,-5.12 -9.55,-5.68 -2.9,-0.46 -5.37,1.78 -5.76,-0.18 -0.38,-1.96 2.51,-0.89 6.24,-0.45 2.95,0.35 6.11,1.89 8.65,4.08 -1.9,-4.02 -3.09,-6.8 -5.81,-9.06 -3.52,-2.91 -5.26,-1.64 -4.74,-3.84 1.6,-2.05 1.49,0.15 5,2.96 1.42,1.13 5.12,5.48 6.61,11.8 -0.24,0.2 -0.24,0.19 -0.64,0.36z"/>
   <path class="fil2" d="M38.83 38.97c-13.68,0.73 -3.64,29.78 5.21,13.04l0 -0c3.25,-6.14 1.28,-13.21 -5.21,-13.04zm-0.38 6.59c-0.63,1.83 -2.26,3.05 -3.66,2.74 -1.39,-0.31 -2.01,-2.05 -1.38,-3.88 0.63,-1.83 2.27,-3.06 3.66,-2.74 1.39,0.32 2,2.05 1.38,3.88z"/>
   <path class="fil2" d="M47.1 43.81c0.56,-2.51 0.8,-4.58 0.76,-6.24 -0.03,-1.66 -0.37,-3.59 -1.02,-5.81l-0.28 -0.95c-0.85,-2.86 -0.8,-5.31 0.17,-7.31 1.06,-2.21 2.79,-3.74 5.17,-4.56 2.38,-0.82 4.7,-0.69 6.95,0.37 2.25,1.07 3.8,2.78 4.66,5.13 0.86,2.35 0.75,4.64 -0.31,6.85 -0.96,2.01 -2.84,3.59 -5.61,4.74l-0.92 0.38c-2.14,0.89 -3.86,1.85 -5.18,2.86 -1.33,1.02 -2.78,2.52 -4.39,4.52z"/>
  </g>
 </g>
</svg>
